<?xml version="1.0" encoding="utf-8"?>
<!-- Generator: Adobe Illustrator 19.2.1, SVG Export Plug-In . SVG Version: 6.00 Build 0)  -->
<svg version="1.1" id="layer" xmlns="http://www.w3.org/2000/svg" xmlns:xlink="http://www.w3.org/1999/xlink" x="0px" y="0px"
	 viewBox="0 0 652 652" style="enable-background:new 0 0 652 652;" xml:space="preserve">
<style type="text/css">
	.st0{fill:#0067B1;}
</style>
<g>
	<g>
		<path d="M197.3,361.4c-2.5,1.2-8,2.5-14.8,2.5c-18.2,0-29.1-11.4-29.1-28.7c0-18.9,13-30.2,30.5-30.2c6.8,0,11.8,1.4,13.9,2.5
			l-2.3,8.4c-2.7-1.2-6.4-2.1-11.2-2.1c-11.6,0-20,7.3-20,21.1c0,12.5,7.3,20.5,20,20.5c4.3,0,8.6-0.9,11.4-2.1L197.3,361.4z"/>
		<path d="M241.9,341.9c0,15.2-10.7,22-21.2,22c-11.8,0-20.7-8-20.7-21.2c0-13.6,8.9-22,21.4-22
			C233.7,320.9,241.9,329.4,241.9,341.9z M210.9,342.5c0,8,3.9,13.9,10.2,13.9c5.9,0,10.2-5.9,10.2-14.1c0-6.4-2.9-13.7-10-13.7
			C213.7,328.4,210.9,335.5,210.9,342.5z"/>
		<path d="M248.7,334.1c0-4.8,0-8.7-0.4-12.3h9.1l0.5,6.2h0.2c1.8-3.2,6.2-7.1,13.2-7.1c7.1,0,14.6,4.6,14.6,17.7V363h-10.4v-23.4
			c0-5.9-2.1-10.4-7.9-10.4c-4.1,0-7,3-8.2,6.1c-0.4,0.9-0.4,2.1-0.4,3.4V363h-10.5L248.7,334.1L248.7,334.1z"/>
		<path d="M295.5,334.1c0-4.8,0-8.7-0.4-12.3h9.1l0.5,6.2h0.2c1.8-3.2,6.2-7.1,13.2-7.1c7.1,0,14.6,4.6,14.6,17.7V363h-10.4v-23.4
			c0-5.9-2.1-10.4-7.9-10.4c-4.1,0-7,3-8.2,6.1c-0.4,0.9-0.4,2.1-0.4,3.4V363h-10.5L295.5,334.1L295.5,334.1z"/>
		<path d="M349.8,345.3c0.2,7.5,6.1,10.7,12.7,10.7c4.8,0,8.4-0.7,11.4-1.8l1.6,7.1c-3.6,1.4-8.4,2.7-14.5,2.7
			c-13.4,0-21.2-8.4-21.2-20.9c0-11.4,7-22.1,20.2-22.1c13.4,0,17.9,11.1,17.9,20.2c0,2-0.2,3.4-0.4,4.5h-27.7V345.3z M368,338
			c0-3.7-1.6-10.2-8.6-10.2c-6.4,0-9.1,5.9-9.6,10.2H368z"/>
		<path d="M414.8,361.7c-2.1,1.1-6.6,2.1-11.8,2.1c-12.9,0-21.2-8.4-21.2-21.1c0-12.3,8.4-22,23-22c3.7,0,7.7,0.9,10.2,2l-1.8,7.9
			c-1.8-0.7-4.1-1.6-7.9-1.6c-8,0-12.7,5.9-12.7,13.4c0,8.4,5.5,13.4,12.7,13.4c3.6,0,6.2-0.7,8.2-1.6L414.8,361.7z"/>
		<path d="M434,311v10.5h10v7.9h-10v18.4c0,5,1.4,7.7,5.4,7.7c2,0,2.9-0.2,4.1-0.5l0.2,8c-1.6,0.5-4.3,1.1-7.5,1.1
			c-3.7,0-7-1.4-8.9-3.4c-2.1-2.3-3.2-6.1-3.2-11.6v-19.5h-5.9v-7.9h5.9v-7.7L434,311z"/>
		<path d="M459.7,363l-13.9-57.1h11.1l5.4,25.9c1.4,7,2.9,14.3,3.7,20h0.2c0.9-6.1,2.5-12.9,4.1-20l6.2-25.9h10.9l5.7,26.2
			c1.4,6.8,2.7,13.2,3.4,19.3h0.2c1.1-6.2,2.3-12.9,3.9-19.8l5.9-25.9H517l-15.4,57.1h-11.2l-5.9-27c-1.4-6.6-2.5-12-3.2-18.2h-0.2
			c-1.1,6.1-2.1,11.6-3.7,18.2l-6.6,27h-11.1V363z"/>
		<path d="M531.3,310.1c0,3.2-2.3,5.5-5.9,5.5c-3.4,0-5.7-2.5-5.7-5.5c0-3.2,2.3-5.7,5.9-5.7C529,304.4,531.3,306.9,531.3,310.1z
			 M520.3,363v-41.2h10.5V363H520.3z"/>
		<path d="M539.7,353.4c2.3,1.4,6.8,3,10.5,3c4.6,0,6.6-1.8,6.6-4.6s-1.6-4.3-6.8-6.1c-8-2.9-11.4-7.1-11.4-12c0-7.3,6.1-13,15.5-13
			c4.6,0,8.6,1.2,10.9,2.5l-2,7.3c-1.8-1.1-5-2.3-8.7-2.3c-3.7,0-5.7,1.8-5.7,4.3c0,2.7,2,3.9,7.1,5.7c7.5,2.7,10.9,6.6,11.1,12.7
			c0,7.5-5.9,13-16.8,13c-5,0-9.5-1.2-12.5-3L539.7,353.4z"/>
		<path d="M581.3,345.3c0.2,7.5,6.1,10.7,12.7,10.7c4.8,0,8.4-0.7,11.4-1.8l1.6,7.1c-3.6,1.4-8.4,2.7-14.5,2.7
			c-13.4,0-21.2-8.4-21.2-20.9c0-11.4,7-22.1,20.2-22.1c13.6,0,17.9,11.1,17.9,20.2c0,2-0.2,3.4-0.4,4.5h-27.7V345.3z M599.3,338
			c0-3.7-1.6-10.2-8.6-10.2c-6.4,0-9.1,5.9-9.6,10.2H599.3z"/>
		<g>
			<path d="M615.1,317.3c2.9,0,5,2.1,5,5s-2.1,5-5,5c-2.9,0-5-2.1-5-5C609.9,319.4,612.2,317.3,615.1,317.3L615.1,317.3z
				 M614.9,318.2c-2.1,0-3.7,1.8-3.7,3.9c0,2.1,1.6,3.9,3.7,3.9c2.1,0,3.7-1.8,3.7-3.9C618.8,320,617.2,318.2,614.9,318.2
				L614.9,318.2z M614.2,324.6h-1.1v-4.8c0.5-0.2,1.1-0.2,2-0.2s1.4,0.2,1.8,0.4c0.4,0.2,0.5,0.5,0.5,1.1s-0.4,1.1-1.1,1.2l0,0
				c0.5,0.2,0.7,0.5,0.9,1.2s0.2,1.1,0.4,1.2h-1.2c-0.2-0.2-0.2-0.5-0.4-1.2c-0.2-0.5-0.4-0.7-1.1-0.7h-0.5v1.8H614.2z M614.2,321.9
				h0.5c0.7,0,1.1-0.2,1.1-0.7s-0.4-0.7-1.1-0.7c-0.4,0-0.5,0-0.7,0v1.4H614.2z"/>
		</g>
	</g>
	<g>
		<g>
			<path class="st0" d="M132.2,288.7C120,278.2,104.7,273,88.6,273c-0.4,0-0.7,0-1.2,0c-0.4,0-0.7,0-1.2,0
				c-16.1,0-31.6,5.2-43.6,15.7c-0.7,0.7-2,2.1-1.8,3c0.4,1.1,2,1.4,3,1.6c13.9,2.9,27.3,8.2,38.2,14.6c1.4,0.9,2.7,1.8,3.7,2.3
				c0.5,0.4,0.9,0.4,1.4,0.4l0,0l0,0c0.5,0,1.1-0.2,1.4-0.4c1.1-0.7,2.3-1.4,3.7-2.3c10.9-6.2,24.3-11.8,38.2-14.6
				c1.1-0.2,2.7-0.7,3-1.6C134.1,290.7,132.9,289.4,132.2,288.7z"/>
			<g>
				<g>
					<path class="st0" d="M27.2,352.1c-1.6,0-3.2-0.2-4.6-0.9c-1.1-0.4-1.8-1.2-1.8-2.3c-0.5-3.2-0.7-6.6-0.7-9.8
						c0-10.9,2.5-21.8,7.3-31.4c0.5-0.9,1.4-1.6,2.5-1.6c0.5,0,0.9,0.2,1.2,0.4c2.1,1.1,4.1,2.1,6.2,3.6c0.7,0.5,1.2,1.2,1.2,2.1
						c0.2,0.9-0.2,1.8-0.9,2.3c-5,5-7.9,11.8-7.9,18.7c0,4.8,1.4,9.5,3.9,13.6c0.4,0.7,0.5,1.6,0.4,2.3c-0.2,0.7-0.9,1.4-1.6,1.8
						C30.9,351.7,29.2,352.1,27.2,352.1L27.2,352.1z"/>
				</g>
			</g>
			<path class="st0" d="M150.9,297.3c-0.2-0.7-0.7-2-3.4-2.1h-0.2l0,0l0,0c-12.5,0-18.2,2.1-29.8,6.4c-14.1,5.2-24.5,11.6-28.6,14.5
				c-0.5,0.4-1.1,0.5-1.6,0.5c-0.7,0-1.6-0.5-2.1-0.9c-4.5-3-14.5-9.1-28-13.9c-11.6-4.3-17.3-6.4-29.8-6.4l0,0l0,0h-0.2
				c-2.7,0.2-3.2,1.4-3.4,2.1c0,0.2,0,0.2,0,0.4l0,0c0,0.2,0,0.2,0,0.4l0,0l0,0c0,0.2,0.2,0.4,0.2,0.5c0.4,0.7,1.1,1.2,2.7,1.8h0.2
				c0.2,0,0.4,0.2,0.5,0.2c14.6,5.4,23.9,13,32.5,21.2c11.2,11.2,18.6,27.8,23,44.5c0.7,1.8,2.3,2.5,3.9,2.5H87h0.2l0,0l0,0l0,0l0,0
				h0.2h0.2c1.4,0,3.2-0.7,3.9-2.5c4.5-16.6,11.8-33.2,23-44.5c8.6-8,18-15.7,32.7-21.1c0.2,0,0.4-0.2,0.5-0.2h0.2
				c1.6-0.5,2.3-1.2,2.7-1.8c0.2-0.2,0.2-0.4,0.2-0.5l0,0l0,0c0-0.2,0-0.2,0-0.4l0,0C150.9,297.5,150.9,297.5,150.9,297.3z"/>
		</g>
		<path class="st0" d="M64.1,335c-1.2,3.7-4.8,6.2-8.9,6.2c-5.2,0-9.5-4.3-9.5-9.5c0-4.6,3.2-8.4,7.5-9.3c-2.9-2.9-6.1-5.5-9.3-8
			c-5.7,3.9-9.5,10.4-9.5,17.9c0,12,9.6,21.6,21.6,21.6c5.9,0,11.8-3,15.7-6.8C69.7,342.8,67,338.9,64.1,335z"/>
	</g>
</g>
</svg>
