<?xml version="1.0" encoding="UTF-8" standalone="no"?>
<!-- Uploaded to: SVG Repo, www.svgrepo.com, Generator: SVG Repo Mixer Tools -->

<svg
   width="800px"
   height="800px"
   viewBox="0 0 1024 1024"
   version="1.1"
   id="svg1"
   sodipodi:docname="credly-hover.svg"
   inkscape:version="1.3 (0e150ed6c4, 2023-07-21)"
   xmlns:inkscape="http://www.inkscape.org/namespaces/inkscape"
   xmlns:sodipodi="http://sodipodi.sourceforge.net/DTD/sodipodi-0.dtd"
   xmlns="http://www.w3.org/2000/svg"
   xmlns:svg="http://www.w3.org/2000/svg">
  <defs
     id="defs1" />
  <sodipodi:namedview
     id="namedview1"
     pagecolor="#959595"
     bordercolor="#000000"
     borderopacity="0.25"
     inkscape:showpageshadow="2"
     inkscape:pageopacity="0.0"
     inkscape:pagecheckerboard="0"
     inkscape:deskcolor="#d1d1d1"
     inkscape:zoom="0.36283417"
     inkscape:cx="202.57188"
     inkscape:cy="571.8866"
     inkscape:window-width="1920"
     inkscape:window-height="1017"
     inkscape:window-x="1912"
     inkscape:window-y="-8"
     inkscape:window-maximized="1"
     inkscape:current-layer="g1" />
  <g
     id="g1"
     transform="matrix(1.3110857,0,0,1.3110857,-159.27588,-159.27588)">
    <path
       id="circle1"
       style="fill:#ffffff;fill-opacity:1;stroke:none;stroke-width:40.078;stroke-dasharray:none;stroke-opacity:1"
       d="M 512 121.48396 A 390.51605 390.51605 0 0 0 121.48396 512 A 390.51605 390.51605 0 0 0 512 902.51604 A 390.51605 390.51605 0 0 0 902.51604 512 A 390.51605 390.51605 0 0 0 512 121.48396 z M 631.43727 399.33193 L 633.68732 399.33193 C 636.46231 399.55693 639.23682 400.90764 640.96182 403.08264 C 643.51182 406.23263 644.18816 410.43222 644.41316 414.40722 C 645.01316 426.48221 642.38678 438.48229 638.93678 450.03227 C 634.51179 465.33226 628.28838 480.03253 623.18839 495.10751 C 622.28839 497.73251 621.38834 500.4314 620.71334 503.1314 C 619.58834 507.63139 619.73832 512.35731 619.58832 517.0073 C 619.43832 521.3573 619.7377 525.70629 620.5627 529.98128 C 621.0127 532.30628 621.98713 534.78204 623.78713 536.43204 C 625.43712 537.93204 627.83788 538.60771 630.01288 537.93271 C 632.93788 537.03271 635.26176 534.78197 637.36175 532.60697 C 640.28675 529.38197 643.06318 526.08176 645.08817 522.25677 C 647.93817 517.15677 649.58701 511.53208 650.41201 505.75708 C 651.537 497.05709 652.43711 488.20785 655.58711 479.95785 C 656.7871 476.80786 658.28785 473.58269 661.13785 471.63269 C 664.96285 468.9327 670.73682 470.05774 673.66182 473.65773 C 675.08682 475.45773 675.46186 477.78286 675.46186 479.95785 C 675.31186 482.88285 674.71309 485.80739 673.73809 488.58239 C 670.3631 498.48238 668.413 508.90799 668.788 519.40798 C 668.863 521.80798 669.08803 524.35685 670.36303 526.53185 C 671.41303 528.33185 673.21313 529.75628 675.31312 529.75628 C 677.71312 529.75628 679.81197 528.33121 681.31197 526.60622 C 683.63697 523.98122 685.51335 520.98295 687.01335 517.83295 C 690.01335 511.45796 691.43783 504.48255 692.71283 497.58256 C 693.76282 491.73257 694.81163 485.88285 696.46163 480.18286 C 697.36163 477.25786 698.48735 474.3327 700.66234 472.0827 C 702.08734 470.5077 704.26246 469.90702 706.28745 469.90702 C 708.38745 469.98202 710.33693 471.18272 711.76192 472.75772 C 713.71192 474.93271 714.08824 477.93224 713.86324 480.70723 C 711.76324 497.28222 709.43811 513.85631 707.56311 530.43129 C 706.21311 540.78128 705.01177 551.1319 704.11178 561.48189 C 704.03678 562.60689 705.38682 563.28255 706.13681 562.53255 C 711.53681 557.35755 716.86274 551.95722 720.91274 545.65722 C 722.78773 542.80722 724.1372 539.73205 725.9372 536.88205 C 726.6872 535.60705 727.5879 534.33263 729.01289 533.88263 C 731.18789 532.83263 733.96239 533.13201 735.83739 534.63201 C 737.26239 535.68201 738.01307 537.4071 738.23807 539.13209 L 738.23807 541.15713 C 737.78807 544.60713 735.76236 547.53295 734.26236 550.53295 C 730.13736 558.78294 724.43766 566.28274 717.31267 572.20774 C 712.21267 576.55773 706.21296 579.85793 699.91297 582.10793 C 699.53797 582.25793 698.93731 582.33231 698.86231 582.85731 C 696.53731 592.3823 691.36266 601.15653 684.38766 607.98152 C 676.66267 615.63151 666.68838 620.88309 656.11339 623.35809 C 650.33839 624.63309 644.2624 625.15747 638.41241 624.10747 C 632.41241 622.98247 626.56336 620.20667 622.28837 615.85668 C 618.38837 611.95668 615.76323 606.78139 615.31323 601.23139 C 614.86323 596.2064 616.13766 591.10738 618.53766 586.68238 C 621.31266 581.65739 625.5129 577.45714 630.46289 574.53215 C 635.18789 571.68215 640.58692 570.33141 645.91192 569.65642 C 651.98691 568.98142 658.21228 568.98268 664.36228 569.50768 C 668.18727 569.80768 672.0125 570.18207 675.8375 570.48207 C 677.9375 570.63207 680.26326 571.38143 682.28826 570.33143 C 683.71326 569.65643 684.16266 567.93135 684.38766 566.50635 C 685.28766 559.75636 686.63706 552.93286 685.81206 546.03286 C 685.66206 545.13287 685.4383 543.78155 684.3133 543.70655 C 682.9633 544.30655 682.28697 545.73288 681.53697 546.93288 C 679.21198 551.43288 674.86174 554.88178 669.83675 555.85678 C 664.81175 556.83178 659.3384 554.28166 657.0134 549.78167 C 655.88841 547.90667 655.3627 545.65719 653.71271 544.08219 C 652.58771 543.03219 650.93826 543.03218 649.58826 543.63218 C 647.18826 544.68218 645.61187 546.85791 643.66188 548.50791 C 638.56188 553.08291 632.11214 556.53244 625.13715 556.90744 C 617.03716 557.43244 608.71176 552.85784 605.33677 545.35785 C 604.88677 544.30785 604.513 542.8078 603.163 542.6578 C 601.663 542.4328 600.53666 543.63284 599.71166 544.68284 C 595.73666 549.70783 591.98767 555.10621 586.73768 558.85621 C 583.36268 561.2562 579.31181 562.90692 575.11182 562.83192 C 570.68682 562.75692 566.26287 560.35743 564.16288 556.45743 C 563.18788 554.73243 562.81282 552.55796 561.23782 551.20796 C 560.03782 550.15797 558.16337 550.30669 556.88837 551.13169 C 554.93837 552.25669 553.81264 554.28179 552.23765 555.85678 C 547.88765 560.20678 541.58795 562.38126 535.51296 561.78126 C 528.16296 561.03126 521.48827 555.93228 518.78827 549.03229 C 518.41327 548.05729 517.88759 546.9316 516.83759 546.6316 C 516.0126 546.3316 515.33756 546.93226 514.81256 547.45726 C 510.76256 551.20725 506.71166 555.03182 501.83667 557.65682 C 496.88667 560.28182 491.41199 562.00754 485.78699 561.85754 C 479.862 561.93254 473.93667 560.1318 469.13667 556.7568 C 465.08667 553.9818 461.86276 550.08158 459.98776 545.50658 C 459.46276 544.30658 458.78835 542.9578 457.43835 542.6578 C 456.23835 542.3578 455.18829 543.25656 454.51329 544.15656 C 452.4883 547.00655 449.86251 549.4817 446.93751 551.3567 C 442.43752 554.28169 437.18658 556.30679 431.71158 556.30679 C 427.51158 556.30679 423.31263 554.7317 420.31263 551.8067 C 417.08763 548.65671 415.36252 544.2321 414.68752 539.80711 C 413.86252 534.03211 415.06256 528.18177 416.71256 522.70678 C 417.76256 519.10678 419.11199 515.65784 419.93699 511.98284 C 420.38699 510.10784 420.53698 508.08273 419.71198 506.35773 C 419.03698 505.00773 417.61255 504.18141 416.26255 503.58141 C 414.76255 502.98141 413.18811 503.8077 412.13811 504.7827 C 411.08811 505.7577 410.56243 507.0315 409.96243 508.3065 C 406.28743 517.15649 401.33777 525.48135 395.26278 532.90634 C 389.41279 540.10633 382.43802 546.33171 374.93802 551.8067 C 366.38803 557.8817 356.56245 562.30694 346.13746 563.73194 C 338.56247 564.78194 330.68765 564.18126 323.33766 562.00627 C 318.98766 560.73127 314.71241 558.93179 310.96242 556.30679 C 304.51242 551.8068 299.33712 545.58208 295.66212 538.68209 C 292.81212 533.35709 290.63763 527.65675 289.06263 521.80676 C 286.88763 513.48177 286.13693 504.93126 285.76193 496.38127 L 285.76193 490.53306 C 285.91193 484.23307 286.51197 477.93142 287.78697 471.78143 C 290.03697 460.60644 294.08657 449.88207 299.56156 439.90708 C 303.91156 432.10709 309.08815 424.7573 315.61314 418.6823 C 322.73814 412.00731 331.36301 406.83203 340.888 404.73203 C 349.96299 402.70703 359.7129 403.23272 368.18789 407.13271 C 370.73789 408.25771 372.9874 409.90779 375.6874 410.73278 C 377.5624 411.33278 379.73751 411.10713 381.31251 409.90713 C 383.71251 408.03213 384.83826 405.03136 386.86325 402.78136 C 389.41325 400.00636 393.53719 398.88258 397.13718 399.93257 C 400.51218 400.90757 403.13668 403.83208 403.96168 407.20708 C 404.48668 409.45708 404.18667 411.78221 403.51167 413.95721 C 402.46167 417.03221 400.73785 419.80675 399.08786 422.58174 C 393.61286 432.03173 389.48825 442.2317 386.86325 452.80669 C 386.03825 456.03169 385.36193 459.40688 384.08693 462.48188 C 382.88693 465.40688 381.01309 468.18139 378.31309 469.98139 C 375.98809 471.55639 372.91166 472.30705 370.13666 471.48205 C 367.58666 470.73206 365.63782 468.63259 364.58782 466.23259 C 363.38782 463.68259 363.01343 460.75742 363.38843 457.90743 C 364.13843 451.23243 367.81289 445.15704 367.96289 438.33205 C 368.11289 434.50705 366.83844 430.53121 363.83844 428.05621 C 359.63845 424.45622 353.7125 423.48305 348.38751 424.23305 C 342.08751 425.05805 336.16218 428.0563 331.51218 432.3313 C 326.48719 436.98129 322.73759 442.83226 319.73759 448.90725 C 311.0376 466.30724 307.21176 486.25646 309.46175 505.60645 C 310.21175 511.90644 311.71313 518.20808 314.71313 523.90807 C 316.58812 527.50807 319.06327 530.73198 322.13827 533.28198 C 326.11327 536.58198 330.91227 538.83211 336.01227 539.80711 C 343.28726 541.23211 350.93833 540.25643 357.76333 537.63143 C 366.91332 534.10643 374.86188 527.80736 381.16187 520.38237 C 384.53687 516.55737 387.46269 512.35649 390.31269 508.08149 C 393.16268 504.1065 396.16282 499.90624 397.28782 495.03124 C 398.03782 491.80624 397.36281 488.50796 396.61281 485.35796 C 396.08781 481.00796 397.73662 476.58145 400.58661 473.35646 C 402.38661 471.48146 404.63738 469.75701 407.26238 469.23201 C 409.73738 468.78201 412.51316 469.23204 414.61316 470.80704 C 416.93815 472.45704 418.13821 475.60783 417.31321 478.38282 C 416.78821 480.18282 416.18756 482.05666 416.71256 483.93166 C 417.23756 485.50666 418.812 486.48235 420.387 486.55735 C 423.98699 486.85735 427.73721 486.183 431.18721 487.383 C 435.2372 488.958 438.83738 492.18254 440.18738 496.45754 C 441.08738 499.30754 441.38675 502.53144 440.48675 505.38144 C 438.91175 510.93144 436.9623 516.40804 435.9123 522.10804 C 435.6123 523.98303 435.31293 525.93251 435.83793 527.80751 C 436.13793 529.15751 437.33799 530.35629 438.76299 530.43129 C 441.23799 530.65629 443.48684 529.30687 445.21184 527.65687 C 448.73684 524.13188 451.06326 519.63226 452.71326 514.98226 C 454.73826 509.35727 455.78771 503.43192 457.28771 497.65693 C 458.86271 491.73193 461.26223 485.95787 465.01223 481.08288 C 470.56222 473.73288 479.5627 469.00701 488.86269 469.23201 C 494.03768 469.30701 499.13796 471.33213 502.81296 475.08212 C 505.88796 478.23212 507.53806 482.50672 508.21306 486.85672 C 509.33806 494.20671 507.98799 501.93278 504.61299 508.60777 C 499.963 517.75777 490.43687 524.28246 480.16188 525.10746 C 478.66189 525.25746 476.93743 525.18185 475.81244 526.30685 C 474.83744 527.28185 474.91306 528.78256 475.06306 530.05755 C 475.43806 533.50755 476.56313 537.03274 478.88813 539.73274 C 481.58813 542.50774 485.63707 544.45782 489.61207 543.55782 C 494.18706 542.58282 498.0873 539.65641 501.31229 536.50641 C 504.38729 533.43141 507.08809 529.98121 509.56309 526.38121 C 513.01309 521.43122 515.11324 515.7328 517.21324 510.1828 C 519.23824 504.70781 521.11275 499.15622 524.48774 494.35623 C 527.18774 490.30623 530.71231 486.78294 534.91231 484.23294 C 539.56231 481.30794 545.11262 479.80659 550.66261 480.10659 C 552.38761 480.18159 554.33835 480.25657 555.76335 479.20657 C 557.03835 478.23157 557.48711 476.50648 557.48711 474.93149 C 557.48711 472.08149 557.78839 469.30759 558.01339 466.45759 C 558.38839 462.0326 558.76342 457.6067 559.36342 453.2567 C 560.63842 442.30671 562.88728 431.50734 565.81227 420.93235 C 567.31227 415.60735 569.26177 410.20641 572.63677 405.70642 C 574.06177 403.68142 575.78688 401.73131 578.03687 400.53132 C 580.21187 399.25632 582.98829 399.33194 585.31329 400.00694 C 588.31328 400.90694 590.26277 403.7577 591.46277 406.4577 C 593.63777 411.7827 593.03779 417.70803 592.58779 423.33303 C 591.98779 432.18302 589.8877 440.88227 588.0877 449.58227 C 586.51271 457.23226 585.23762 464.95708 583.81262 472.60708 C 581.86262 483.10707 579.98687 493.68206 578.03687 504.18205 C 576.38688 512.80704 574.51183 521.5813 575.56183 530.43129 C 575.86183 532.75629 576.16251 535.30706 577.7375 537.10706 C 578.8625 538.38205 580.73759 538.68271 582.23759 538.15771 C 584.26259 537.48271 585.68768 535.68263 586.73768 533.88263 C 589.21268 529.68263 591.38718 525.25737 593.56218 520.83238 C 596.71217 514.68238 599.86295 508.30763 600.91295 501.40763 C 602.56295 490.90765 603.68804 480.25701 605.18804 469.68202 C 606.38803 461.80703 607.73811 453.93283 609.01311 446.13283 C 610.58811 436.30784 612.3876 426.5579 615.16259 417.03291 C 616.51259 412.53291 618.31272 408.10639 621.46272 404.58139 C 624.31271 401.7314 627.68728 399.70693 631.43727 399.33193 z M 488.21628 486.2656 C 487.6444 486.21873 487.06328 486.29548 486.53828 486.48298 C 485.03828 486.93298 483.83694 488.13177 482.86194 489.33177 C 480.68694 492.10676 479.03684 495.25631 477.91184 498.63131 C 476.71184 502.23131 475.58744 505.9828 476.03744 509.7328 C 476.11244 510.8578 477.23748 511.68156 478.28748 511.68156 C 480.31248 511.75656 482.11259 510.63152 483.68759 509.43152 C 487.21258 506.95652 489.46337 503.13195 491.03837 499.23196 C 492.01337 496.75696 492.68776 494.0568 492.46276 491.3568 C 492.31276 489.55681 491.41207 487.68235 489.83707 486.78235 C 489.34957 486.48235 488.78815 486.31248 488.21628 486.2656 z M 553.4561 494.66704 C 552.57485 494.62016 551.67575 494.73251 550.81325 494.88251 C 546.61326 495.63251 542.86177 498.10764 540.16178 501.40763 C 537.23678 504.93263 535.21293 509.20661 534.16293 513.7066 C 532.58793 520.0816 532.43793 526.83262 534.16293 533.20762 C 534.68793 535.15761 535.58799 537.10645 537.08799 538.53145 C 538.06299 539.50645 539.41242 540.03148 540.76242 540.10648 C 544.28742 540.63148 547.58697 538.68204 550.28697 536.65705 C 553.66197 534.18205 555.83774 530.50621 557.18774 526.60622 C 558.01274 524.20622 557.48711 521.65798 557.26211 519.18298 C 556.88711 514.15798 556.88774 509.13268 557.18774 504.10769 C 557.26274 502.38269 557.78839 500.73195 557.78839 499.00695 C 557.78839 497.65695 557.26335 496.15688 555.98835 495.40688 C 555.20085 494.91938 554.33735 494.71391 553.4561 494.66704 z M 657.72465 584.53531 C 655.51215 584.45093 653.29952 584.43298 651.08702 584.58298 C 647.48702 584.80798 643.88681 585.55675 640.51181 586.98175 C 636.83682 588.48175 633.68729 591.25691 632.11229 594.8569 C 631.06229 597.1069 630.61165 599.80705 631.73664 602.05704 C 632.86164 604.38204 634.96239 606.10778 637.28739 607.15778 C 640.51238 608.58278 644.11195 608.80653 647.48695 608.43153 C 658.13694 607.23153 668.26185 601.7575 675.01185 593.43251 C 676.36185 591.78251 677.41255 589.90677 678.53755 588.10677 C 678.83755 587.50677 679.28692 586.53237 678.61192 586.00737 C 677.78692 585.40737 676.7375 585.63172 675.8375 585.63172 C 672.0125 585.40673 668.18727 585.03235 664.36228 584.88235 C 662.14978 584.76985 659.93715 584.61968 657.72465 584.53531 z " />
    <path
       d="m -234.62365,384.77348 h 3 c 3.7,0.3 7.4,2.1 9.7,5 3.4,4.2 4.3,9.8 4.6,15.1 0.8,16.1 -2.7,32.1 -7.3,47.5 -5.9,20.4 -14.2,40 -21,60.1 -1.2,3.5 -2.4,7.1 -3.3,10.7 -1.5,6 -1.3,12.3 -1.5,18.5 -0.2,5.8 0.2,11.6 1.3,17.3 0.6,3.1 1.9,6.4 4.3,8.6 2.2,2 5.4,2.9 8.3,2 3.9,-1.2 7,-4.2 9.8,-7.1 3.9,-4.3 7.6,-8.7 10.3,-13.8 3.8,-6.8 6,-14.3 7.1,-22 1.5,-11.6 2.7,-23.4 6.9,-34.4 1.6,-4.2 3.6,-8.5 7.4,-11.1 5.1,-3.6 12.8,-2.1 16.7,2.7 1.9,2.4 2.4,5.5 2.4,8.4 -0.2,3.9 -1,7.8 -2.3,11.5 -4.5,13.2 -7.1,27.1 -6.6,41.1 0.1,3.2 0.4,6.6 2.1,9.5 1.4,2.4 3.8,4.3 6.6,4.3 3.2,0 6,-1.9 8,-4.2 3.1,-3.5 5.6,-7.5 7.6,-11.7 4,-8.5 5.9,-17.8 7.6,-27 1.4,-7.8 2.8,-15.6 5,-23.2 1.2,-3.9 2.7,-7.8 5.6,-10.8 1.9,-2.1 4.8,-2.9 7.5,-2.9 2.8,0.1 5.4,1.7 7.3,3.8 2.6,2.9 3.1,6.9 2.8,10.6 -2.8,22.1 -5.9,44.2 -8.4,66.3 -1.8,13.8 -3.4,27.6 -4.6,41.4 -0.1,1.5 1.7,2.4 2.7,1.4 7.2,-6.9 14.3,-14.1 19.7,-22.5 2.5,-3.8 4.3,-7.9 6.7,-11.7 1,-1.7 2.2,-3.4 4.1,-4 2.9,-1.4 6.600001,-1 9.100001,1 1.9,1.4 2.9,3.7 3.2,6 v 2.7 c -0.6,4.6 -3.3,8.5 -5.3,12.5 -5.500001,11 -13.100001,21 -22.600001,28.9 -6.8,5.8 -14.8,10.2 -23.2,13.2 -0.5,0.2 -1.3,0.3 -1.4,1 -3.1,12.7 -10,24.4 -19.3,33.5 -10.3,10.2 -23.6,17.2 -37.7,20.5 -7.7,1.7 -15.8,2.4 -23.6,1 -8,-1.5 -15.8,-5.2 -21.5,-11 -5.2,-5.2 -8.7,-12.1 -9.3,-19.5 -0.6,-6.7 1.1,-13.5 4.3,-19.4 3.7,-6.7 9.3,-12.3 15.9,-16.2 6.3,-3.8 13.5,-5.6 20.6,-6.5 8.1,-0.9 16.4,-0.9 24.6,-0.2 5.1,0.4 10.2,0.9 15.3,1.3 2.8,0.2 5.9,1.2 8.6,-0.2 1.9,-0.9 2.5,-3.2 2.8,-5.1 1.2,-9 3,-18.1 1.9,-27.3 -0.2,-1.2 -0.5,-3 -2,-3.1 -1.8,0.8 -2.7,2.7 -3.7,4.3 -3.1,6 -8.9,10.6 -15.6,11.9 -6.7,1.3 -14,-2.1 -17.1,-8.1 -1.5,-2.5 -2.2,-5.5 -4.4,-7.6 -1.5,-1.4 -3.7,-1.4 -5.5,-0.6 -3.2,1.4 -5.3,4.3 -7.9,6.5 -6.8,6.1 -15.4,10.7 -24.7,11.2 -10.8,0.7 -21.9,-5.4 -26.4,-15.4 -0.6,-1.4 -1.1,-3.4 -2.9,-3.6 -2,-0.3 -3.5,1.3 -4.6,2.7 -5.3,6.7 -10.3,13.9 -17.3,18.9 -4.5,3.2 -9.9,5.4 -15.5,5.3 -5.9,-0.1 -11.8,-3.3 -14.6,-8.5 -1.3,-2.3 -1.8,-5.2 -3.9,-7 -1.6,-1.4 -4.1,-1.2 -5.8,-0.1 -2.6,1.5 -4.1,4.2 -6.2,6.3 -5.8,5.8 -14.2,8.7 -22.3,7.9 -9.8,-1 -18.7,-7.8 -22.3,-17 -0.5,-1.3 -1.2,-2.8 -2.6,-3.2 -1.1,-0.4 -2,0.4 -2.7,1.1 -5.4,5 -10.8,10.1 -17.3,13.6 -6.6,3.5 -13.9,5.8 -21.4,5.6 -7.9,0.1 -15.8,-2.3 -22.2,-6.8 -5.4,-3.7 -9.7,-8.9 -12.2,-15 -0.7,-1.6 -1.6,-3.4 -3.4,-3.8 -1.6,-0.4 -3,0.8 -3.9,2 -2.7,3.8 -6.2,7.1 -10.1,9.6 -6,3.9 -13,6.6 -20.3,6.6 -5.6,0 -11.2,-2.1 -15.2,-6 -4.3,-4.2 -6.6,-10.1 -7.5,-16 -1.1,-7.7 0.5,-15.5 2.7,-22.8 1.4,-4.8 3.2,-9.4 4.3,-14.3 0.6,-2.5 0.8,-5.2 -0.3,-7.5 -0.9,-1.8 -2.8,-2.9 -4.6,-3.7 -2,-0.8 -4.1,0.3 -5.5,1.6 -1.4,1.3 -2.1,3 -2.9,4.7 -4.9,11.8 -11.5,22.9 -19.6,32.8 -7.8,9.6 -17.1,17.9 -27.1,25.2 -11.4,8.1 -24.5,14 -38.4,15.9 -10.1,1.4 -20.6,0.6 -30.4,-2.3 -5.8,-1.7 -11.5,-4.1 -16.5,-7.6 -8.6,-6 -15.5,-14.3 -20.4,-23.5 -3.8,-7.1 -6.7,-14.7 -8.8,-22.5 -2.9,-11.1 -3.9,-22.5 -4.4,-33.9 v -7.8 c 0.2,-8.4 1,-16.8 2.7,-25 3,-14.9 8.4,-29.2 15.7,-42.5 5.8,-10.4 12.7,-20.2 21.4,-28.3 9.5,-8.9 21,-15.8 33.7,-18.6 12.1,-2.7 25.1,-2 36.4,3.2 3.4,1.5 6.4,3.7 10,4.8 2.5,0.8 5.4,0.5 7.5,-1.1 3.2,-2.5 4.7,-6.5 7.4,-9.5 3.4,-3.7 8.9,-5.2 13.7,-3.8 4.5,1.3 8,5.2 9.1,9.7 0.7,3 0.3,6.1 -0.6,9 -1.4,4.1 -3.7,7.8 -5.9,11.5 -7.3,12.6 -12.8,26.2 -16.3,40.3 -1.1,4.3 -2,8.8 -3.7,12.9 -1.6,3.9 -4.1,7.6 -7.7,10 -3.1,2.1 -7.2,3.1 -10.9,2 -3.4,-1 -6,-3.8 -7.4,-7 -1.6,-3.4 -2.1,-7.3 -1.6,-11.1 1,-8.9 5.9,-17 6.1,-26.1 0.2,-5.1 -1.5,-10.4 -5.5,-13.7 -5.6,-4.8 -13.5,-6.1 -20.6,-5.1 -8.4,1.1 -16.3,5.1 -22.5,10.8 -6.7,6.2 -11.7,14 -15.7,22.1 -11.6,23.2 -16.7,49.8 -13.7,75.6 1,8.4 3,16.8 7,24.4 2.5,4.8 5.8,9.1 9.9,12.5 5.3,4.4 11.7,7.4 18.5,8.7 9.7,1.9 19.9,0.6 29,-2.9 12.2,-4.7 22.8,-13.1 31.2,-23 4.5,-5.1 8.4,-10.7 12.2,-16.4 3.8,-5.3 7.8,-10.9 9.3,-17.4 1,-4.3 0.1,-8.7 -0.9,-12.9 -0.7,-5.8 1.5,-11.7 5.3,-16 2.4,-2.5 5.4,-4.8 8.9,-5.5 3.3,-0.6 7,0 9.8,2.1 3.1,2.2 4.7,6.4 3.6,10.1 -0.7,2.4 -1.5,4.9 -0.8,7.4 0.7,2.1 2.8,3.4 4.9,3.5 4.8,0.4 9.8,-0.5 14.4,1.1 5.4,2.1 10.2,6.4 12,12.1 1.2,3.8 1.6,8.1 0.4,11.9 -2.1,7.4 -4.7,14.7 -6.1,22.3 -0.4,2.5 -0.8,5.1 -0.1,7.6 0.4,1.8 2,3.4 3.9,3.5 3.3,0.3 6.3,-1.5 8.6,-3.7 4.7,-4.7 7.8,-10.7 10,-16.9 2.7,-7.5 4.1,-15.4 6.1,-23.1 2.1,-7.9 5.3,-15.6 10.3,-22.1 7.4,-9.8 19.4,-16.1 31.8,-15.8 6.9,0.1 13.7,2.8 18.6,7.8 4.1,4.2 6.3,9.9 7.2,15.7 1.5,9.8 -0.3,20.1 -4.8,29 -6.2,12.2 -18.9,20.9 -32.6,22 -2,0.2 -4.3,0.1 -5.8,1.6 -1.3,1.3 -1.2,3.3 -1,5 0.5,4.6 2,9.3 5.1,12.9 3.6,3.7 9,6.3 14.3,5.1 6.1,-1.3 11.3,-5.2 15.6,-9.4 4.1,-4.1 7.7,-8.7 11,-13.5 4.6,-6.6 7.4,-14.2 10.2,-21.6 2.7,-7.3 5.2,-14.7 9.7,-21.1 3.6,-5.4 8.3,-10.1 13.9,-13.5 6.2,-3.9 13.6,-5.9 21,-5.5 2.3,0.1 4.9,0.2 6.8,-1.2 1.7,-1.3 2.3,-3.6 2.3,-5.7 0,-3.8 0.4,-7.5 0.7,-11.3 0.5,-5.9 1,-11.8 1.8,-17.6 1.7,-14.6 4.7,-29 8.6,-43.1 2,-7.1 4.6,-14.3 9.1,-20.3 1.9,-2.7 4.2,-5.3 7.2,-6.9 2.9,-1.7 6.6,-1.6 9.7,-0.7 4,1.2 6.6,5 8.2,8.6 2.9,7.1 2.1,15 1.5,22.5 -0.8,11.8 -3.6,23.4 -6,35 -2.1,10.2 -3.8,20.5 -5.7,30.7 -2.6,14 -5.1,28.1 -7.7,42.1 -2.2,11.5 -4.7,23.2 -3.3,35 0.4,3.1 0.8,6.5 2.9,8.9 1.5,1.7 4,2.1 6,1.4 2.7,-0.9 4.6,-3.3 6,-5.7 3.3,-5.6 6.2,-11.5 9.1,-17.4 4.2,-8.2 8.4,-16.7 9.8,-25.9 2.2,-14 3.7,-28.2 5.7,-42.3 1.6,-10.5 3.4,-21 5.1,-31.4 2.1,-13.1 4.5,-26.1 8.2,-38.8 1.8,-6 4.2,-11.9 8.4,-16.6 3.8,-3.8 8.3,-6.5 13.3,-7 z m -193.2,116.2 c -2,0.6 -3.6,2.2 -4.9,3.8 -2.9,3.7 -5.1,7.9 -6.6,12.4 -1.6,4.8 -3.1,9.8 -2.5,14.8 0.1,1.5 1.6,2.6 3,2.6 2.7,0.1 5.1,-1.4 7.2,-3 4.7,-3.3 7.7,-8.4 9.8,-13.6 1.3,-3.3 2.2,-6.9 1.9,-10.5 -0.2,-2.4 -1.4,-4.9 -3.5,-6.1 -1.3,-0.8 -3,-0.9 -4.4,-0.4 z m 85.7,11.2 c -5.6,1 -10.6,4.3 -14.2,8.7 -3.9,4.7 -6.6,10.4 -8,16.4 -2.1,8.5 -2.3,17.5 0,26 0.7,2.6 1.9,5.2 3.9,7.1 1.3,1.3 3.1,2 4.9,2.1 4.7,0.7 9.1,-1.9 12.7,-4.6 4.5,-3.3 7.4,-8.2 9.2,-13.4 1.1,-3.2 0.4,-6.6 0.1,-9.9 -0.5,-6.7 -0.5,-13.4 -0.1,-20.1 0.1,-2.3 0.8,-4.5 0.8,-6.8 0,-1.8 -0.7,-3.8 -2.4,-4.8 -2.1,-1.3 -4.6,-1.1 -6.9,-0.7 z m 133.7,119.6 c -4.8,0.3 -9.6,1.3 -14.1,3.2 -4.9,2 -9.1,5.7 -11.2,10.5 -1.4,3 -2,6.6 -0.5,9.6 1.5,3.1 4.3,5.4 7.4,6.8 4.3,1.9 9.1,2.2 13.6,1.7 14.2,-1.6 27.7,-8.9 36.7,-20 1.8,-2.2 3.2,-4.7 4.7,-7.1 0.4,-0.8 1,-2.1 0.1,-2.8 -1.1,-0.8 -2.5,-0.5 -3.7,-0.5 -5.1,-0.3 -10.2,-0.8 -15.3,-1 -5.9,-0.3 -11.8,-0.8 -17.7,-0.4 z"
       style="fill:#ffffff;fill-opacity:1;stroke:#000000;stroke-width:0.999721;stroke-dasharray:none;stroke-opacity:1"
       id="path1-6" />
  </g>
</svg>
