<?xml version="1.0" encoding="UTF-8" standalone="no"?>
<svg
   width="150mm"
   height="150mm"
   version="1.1"
   viewBox="0 0 531.56314 531.42994"
   id="svg27"
   sodipodi:docname="Hewlett_Packard_Enterprise_Centered squared logo.svg"
   inkscape:version="1.3 (0e150ed6c4, 2023-07-21)"
   xmlns:inkscape="http://www.inkscape.org/namespaces/inkscape"
   xmlns:sodipodi="http://sodipodi.sourceforge.net/DTD/sodipodi-0.dtd"
   xmlns="http://www.w3.org/2000/svg"
   xmlns:svg="http://www.w3.org/2000/svg"
   xmlns:rdf="http://www.w3.org/1999/02/22-rdf-syntax-ns#"
   xmlns:cc="http://creativecommons.org/ns#"
   xmlns:dc="http://purl.org/dc/elements/1.1/">
  <defs
     id="defs27" />
  <sodipodi:namedview
     id="namedview27"
     pagecolor="#ffffff"
     bordercolor="#000000"
     borderopacity="0.25"
     inkscape:showpageshadow="2"
     inkscape:pageopacity="0.0"
     inkscape:pagecheckerboard="0"
     inkscape:deskcolor="#d1d1d1"
     inkscape:document-units="mm"
     inkscape:zoom="0.86427023"
     inkscape:cx="80.993187"
     inkscape:cy="259.75672"
     inkscape:window-width="1620"
     inkscape:window-height="1018"
     inkscape:window-x="-6"
     inkscape:window-y="-6"
     inkscape:window-maximized="1"
     inkscape:current-layer="svg27" />
  <title
     id="title1">Hewlett Packard Enterprise logo</title>
  <metadata
     id="metadata1">
    <rdf:RDF>
      <cc:Work
         rdf:about="">
        <dc:format>image/svg+xml</dc:format>
        <dc:type
           rdf:resource="http://purl.org/dc/dcmitype/StillImage" />
        <dc:title>Hewlett Packard Enterprise logo</dc:title>
      </cc:Work>
    </rdf:RDF>
  </metadata>
  <g
     id="g29"
     transform="translate(0.55113262,155.02088)">
    <path
       d="M 344.64223,40.731166 H 185.82441 V 11.298081 H 344.64223 Z M 355.98965,-0.0666 H 174.47123 v 52.133675 h 181.51842 z"
       style="fill:#00b188;stroke-width:2.87713"
       id="path1" />
    <g
       id="g28"
       transform="translate(-0.27266121,-0.18098701)">
      <g
         transform="matrix(3.596418,0,0,-3.596418,11.61936,138.44701)"
         id="g2">
        <path
           d="M 0,0 H -3.155 V 14.5 H 0 V 8.772 H 5.637 V 14.5 H 8.792 V 0 H 5.637 V 6.007 H 0 V 0"
           style="fill:#040404"
           id="path2" />
      </g>
      <g
         transform="matrix(3.596418,0,0,-3.596418,60.530645,115.42993)"
         id="g3">
        <path
           d="M 0,0 H 3.758 C 3.688,1.066 3.248,1.809 2.018,1.809 1.09,1.809 0.278,1.414 0,0 Z m 2.389,-6.587 c -3.201,0 -5.381,2.018 -5.381,5.333 0,3.225 2.134,5.451 4.964,5.451 3.085,0 4.616,-2.064 4.616,-5.149 v -1.16 H 0 c 0.372,-1.599 1.624,-2.016 2.877,-2.016 1.09,0 1.878,0.231 2.852,0.835 H 5.846 V -5.682 C 5.011,-6.286 3.827,-6.587 2.389,-6.587"
           style="fill:#040404"
           id="path3" />
      </g>
      <g
         transform="matrix(3.596418,0,0,-3.596418,113.75763,116.58079)"
         id="g4">
        <path
           d="m 0,0 -1.624,-6.076 h -2.76 l -3.155,10.2 V 4.24 h 3.016 l 1.716,-6.1 1.624,6.1 h 2.459 l 1.647,-6.1 1.74,6.1 h 2.9 V 4.124 L 4.408,-6.076 H 1.647 L 0,0"
           style="fill:#040404"
           id="path4" />
      </g>
      <g
         transform="matrix(3.596418,0,0,-3.596418,159.21635,139.02244)"
         id="g5">
        <path
           d="m 0,0 c -2.505,0 -3.526,0.997 -3.526,3.339 v 11.39 h 3.062 V 3.549 c 0,-0.719 0.278,-0.974 0.881,-0.974 0.209,0 0.511,0.069 0.696,0.139 H 1.16 V 0.186 C 0.905,0.094 0.464,0.001 0,0.001"
           style="fill:#040404"
           id="path5" />
      </g>
      <g
         transform="matrix(3.596418,0,0,-3.596418,177.3423,115.42993)"
         id="g6">
        <path
           d="M 0,0 H 3.758 C 3.688,1.066 3.248,1.809 2.018,1.809 1.091,1.809 0.278,1.414 0,0 Z m 2.389,-6.587 c -3.201,0 -5.381,2.018 -5.381,5.333 0,3.225 2.134,5.451 4.964,5.451 3.085,0 4.616,-2.064 4.616,-5.149 v -1.16 H 0 c 0.371,-1.599 1.624,-2.016 2.876,-2.016 1.091,0 1.879,0.231 2.854,0.835 H 5.846 V -5.682 C 5.011,-6.286 3.828,-6.587 2.389,-6.587"
           style="fill:#040404"
           id="path6" />
      </g>
      <g
         transform="matrix(3.596418,0,0,-3.596418,246.39353,101.33198)"
         id="g7">
        <path
           d="M 0,0 H 2.273 V -2.458 H 0 v -4.198 c 0,-0.905 0.348,-1.323 1.276,-1.323 0.255,0 0.58,0.024 0.928,0.14 h 0.069 v -2.412 c -0.394,-0.14 -0.997,-0.301 -1.878,-0.301 -2.483,0 -3.457,1.136 -3.457,3.757 v 4.337 h -3.92 v -4.198 c 0,-0.905 0.348,-1.323 1.275,-1.323 0.256,0 0.581,0.024 0.929,0.14 h 0.069 v -2.412 c -0.394,-0.14 -0.998,-0.301 -1.878,-0.301 -2.483,0 -3.457,1.136 -3.457,3.757 v 4.337 h -1.578 V 0 h 1.578 v 2.829 h 3.062 V 0 h 3.92 V 2.829 H 0 V 0"
           style="fill:#040404"
           id="path7" />
      </g>
      <g
         transform="matrix(3.596418,0,0,-3.596418,291.56454,111.68966)"
         id="g8">
        <path
           d="M 0,0 C 1.602,0 2.366,0.904 2.366,2.203 2.366,3.549 1.602,4.453 0,4.453 H -1.995 V 0 Z m 5.568,2.203 c 0,-3.155 -2.111,-4.87 -5.313,-4.87 h -2.25 v -4.708 h -3.153 v 14.5 h 5.403 c 3.202,0 5.313,-1.716 5.313,-4.917"
           style="fill:#040404"
           id="path8" />
      </g>
      <g
         transform="matrix(3.596418,0,0,-3.596418,335.87241,126.65076)"
         id="g9">
        <path
           d="m 0,0 v 0.881 c -0.464,0.254 -1.066,0.347 -1.693,0.347 -0.997,0 -1.6,-0.37 -1.6,-1.205 0,-0.859 0.603,-1.23 1.507,-1.23 0.858,0 1.508,0.441 1.786,1.207 z m 0.093,-2.227 c -0.673,-0.812 -1.669,-1.206 -2.738,-1.206 -2.017,0 -3.665,1.228 -3.665,3.41 0,2.017 1.648,3.362 4.013,3.362 0.742,0 1.509,-0.116 2.297,-0.347 v 0.184 c 0,1.114 -0.626,1.6 -2.272,1.6 -1.045,0 -2.042,-0.3 -2.901,-0.788 h -0.115 v 2.459 c 0.788,0.463 2.181,0.858 3.548,0.858 3.109,0 4.802,-1.484 4.802,-4.082 v -6.47 H 0.093 v 1.02"
           style="fill:#040404"
           id="path9" />
      </g>
      <g
         transform="matrix(3.596418,0,0,-3.596418,352.27207,119.74564)"
         id="g10">
        <path
           d="m 0,0 c 0,3.317 2.344,5.404 5.406,5.404 1.09,0 2.11,-0.232 2.876,-0.788 V 1.995 H 8.165 C 7.492,2.505 6.704,2.807 5.8,2.807 4.269,2.807 3.109,1.762 3.109,0 c 0,-1.762 1.16,-2.783 2.691,-2.783 0.904,0 1.692,0.302 2.365,0.813 H 8.282 V -4.591 C 7.516,-5.148 6.496,-5.38 5.406,-5.38 2.344,-5.38 0,-3.317 0,0"
           style="fill:#040404"
           id="path10" />
      </g>
      <g
         transform="matrix(3.596418,0,0,-3.596418,400.0325,121.47192)"
         id="g11">
        <path
           d="m 0,0 v -4.684 h -3.061 v 14.5 H 0 V 1.56 L 3.086,5.642 H 6.565 V 5.526 L 2.854,0.841 6.565,-4.563 V -4.679 H 3.062 L 0,0.005"
           style="fill:#040404"
           id="path11" />
      </g>
      <g
         transform="matrix(3.596418,0,0,-3.596418,448.36836,126.65076)"
         id="g12">
        <path
           d="m 0,0 v 0.881 c -0.463,0.254 -1.067,0.347 -1.693,0.347 -0.997,0 -1.6,-0.37 -1.6,-1.205 0,-0.859 0.603,-1.23 1.506,-1.23 0.86,0 1.509,0.441 1.787,1.207 z m 0.093,-2.227 c -0.673,-0.812 -1.671,-1.206 -2.737,-1.206 -2.019,0 -3.665,1.228 -3.665,3.41 0,2.017 1.646,3.362 4.014,3.362 0.742,0 1.506,-0.116 2.295,-0.347 v 0.184 c 0,1.114 -0.626,1.6 -2.273,1.6 -1.043,0 -2.042,-0.3 -2.9,-0.788 h -0.116 v 2.459 c 0.789,0.463 2.181,0.858 3.549,0.858 3.11,0 4.803,-1.484 4.803,-4.082 v -6.47 h -2.97 v 1.02"
           style="fill:#040404"
           id="path12" />
      </g>
      <g
         transform="matrix(3.596418,0,0,-3.596418,478.00285,107.08624)"
         id="g13">
        <path
           d="M 0,0 C 0.556,1.137 1.369,1.786 2.506,1.786 2.923,1.786 3.34,1.693 3.501,1.6 V -1.322 H 3.386 C 3.038,-1.182 2.621,-1.09 2.041,-1.09 1.09,-1.09 0.348,-1.647 0.092,-2.713 V -8.651 H -2.969 V 1.669 H 0 v -1.67"
           style="fill:#040404"
           id="path13" />
      </g>
      <g
         transform="matrix(3.596418,0,0,-3.596418,519.7213,125.78762)"
         id="g14">
        <path
           d="m 0,0 v 3.317 c -0.51,0.742 -1.182,1.066 -1.949,1.066 -1.344,0 -2.249,-0.975 -2.249,-2.737 0,-1.762 0.905,-2.713 2.249,-2.713 0.767,0 1.439,0.325 1.949,1.067 z m 0.092,-2.436 c -0.649,-0.835 -1.67,-1.298 -3.061,-1.298 -2.645,0 -4.338,2.411 -4.338,5.38 0,2.969 1.693,5.404 4.338,5.404 1.345,0 2.319,-0.418 2.969,-1.183 v 5.125 h 3.062 v -14.49 h -2.97 v 1.066"
           style="fill:#040404"
           id="path14" />
      </g>
    </g>
    <g
       id="g27"
       transform="translate(105.1959,-0.18098701)">
      <g
         transform="matrix(3.596418,0,0,-3.596418,0.398536,155.4221)"
         id="g15">
        <path
           d="M 0,0 H 8.954 V -1.762 H 2.018 V -6.191 H 8.304 V -7.908 H 2.018 v -4.824 h 6.936 v -1.762 H 0 v 14.49"
           style="fill:#040404"
           id="path15" />
      </g>
      <g
         transform="matrix(3.596418,0,0,-3.596418,59.092078,170.09549)"
         id="g16">
        <path
           d="m 0,0 c 2.296,0 3.572,-1.508 3.572,-3.988 v -6.425 H 1.647 v 6.378 c 0,1.322 -0.673,2.273 -2.134,2.273 -1.206,0 -2.227,-0.766 -2.575,-1.855 v -6.796 h -1.925 v 10.2 h 1.925 v -1.484 c 0.603,0.951 1.624,1.693 3.062,1.693"
           style="fill:#040404"
           id="path16" />
      </g>
      <g
         transform="matrix(3.596418,0,0,-3.596418,90.452843,170.67091)"
         id="g17">
        <path
           d="M 0,0 H 2.621 V -1.647 H 0 v -5.496 c 0,-1.159 0.603,-1.554 1.693,-1.554 0.301,0 0.626,0.046 0.858,0.139 h 0.07 v -1.646 c -0.278,-0.116 -0.673,-0.209 -1.206,-0.209 -2.39,0 -3.34,1.091 -3.34,3.084 v 5.682 H -3.688 V 0 h 1.763 V 2.712 H 0 V 0"
           style="fill:#040404"
           id="path17" />
      </g>
      <g
         transform="matrix(3.596418,0,0,-3.596418,111.45592,185.63201)"
         id="g18">
        <path
           d="M 0,0 H 5.08 C 5.011,1.507 4.268,2.666 2.691,2.666 1.23,2.666 0.278,1.576 0,0 Z m 3.039,-6.309 c -2.993,0 -5.034,1.995 -5.034,5.195 0,3.201 1.902,5.427 4.663,5.427 2.807,0 4.268,-2.018 4.268,-5.009 V -1.578 H -0.07 c 0.209,-2.064 1.532,-3.061 3.364,-3.061 1.137,0 1.948,0.255 2.853,0.928 h 0.07 V -5.405 C 5.382,-6.054 4.291,-6.309 3.039,-6.309"
           style="fill:#040404"
           id="path18" />
      </g>
      <g
         transform="matrix(3.596418,0,0,-3.596418,151.73581,176.42518)"
         id="g19">
        <path
           d="M 0,0 C 0.441,1.09 1.416,1.739 2.528,1.739 2.97,1.739 3.364,1.67 3.526,1.577 V -0.324 H 3.457 C 3.178,-0.186 2.714,-0.116 2.25,-0.116 1.207,-0.116 0.325,-0.811 0,-1.971 v -6.656 h -1.925 v 10.2 H 0 v -1.577"
           style="fill:#040404"
           id="path19" />
      </g>
      <g
         transform="matrix(3.596418,0,0,-3.596418,186.54913,202.03168)"
         id="g20">
        <path
           d="m 0,0 c 1.902,0 3.016,1.507 3.016,3.572 0,2.04 -1.114,3.57 -3.016,3.57 -1.044,0 -2.018,-0.626 -2.528,-1.622 V 1.599 C -2.018,0.603 -1.044,0 0,0 Z m 0.325,8.882 c 3.038,0 4.662,-2.482 4.662,-5.31 0,-2.831 -1.624,-5.312 -4.662,-5.312 -1.253,0 -2.32,0.649 -2.853,1.346 v -5.057 h -1.926 v 14.12 h 1.926 V 7.51 c 0.533,0.719 1.6,1.368 2.853,1.368"
           style="fill:#040404"
           id="path20" />
      </g>
      <g
         transform="matrix(3.596418,0,0,-3.596418,219.63618,176.42518)"
         id="g21">
        <path
           d="m 0,0 c 0.44,1.09 1.415,1.739 2.528,1.739 0.441,0 0.835,-0.069 0.997,-0.162 V -0.324 H 3.456 C 3.178,-0.186 2.714,-0.116 2.25,-0.116 1.206,-0.116 0.325,-0.811 0,-1.971 v -6.656 h -1.925 v 10.2 H 0 v -1.577"
           style="fill:#040404"
           id="path21" />
      </g>
      <g
         transform="matrix(3.596418,0,0,-3.596418,242.36554,155.99753)"
         id="g22">
        <path
           d="m 0,0 c 0.673,0 1.229,-0.533 1.229,-1.206 0,-0.673 -0.556,-1.206 -1.229,-1.206 -0.649,0 -1.23,0.533 -1.23,1.206 C -1.23,-0.533 -0.649,0 0,0"
           style="fill:#040404"
           id="path22" />
      </g>
      <path
         d="m 238.91298,207.49823 h 6.92814 V 170.786 h -6.92814 z"
         style="fill:#040404;stroke-width:2.87713"
         id="path23" />
      <g
         transform="matrix(3.596418,0,0,-3.596418,270.56146,185.91973)"
         id="g24">
        <path
           d="m 0,0 c 1.461,-0.463 3.084,-1.066 3.084,-3.014 0,-2.088 -1.716,-3.155 -3.919,-3.155 -1.346,0 -2.691,0.325 -3.457,0.928 v 1.832 h 0.093 c 0.859,-0.788 2.134,-1.136 3.34,-1.136 1.09,0 2.065,0.418 2.065,1.299 0,0.904 -0.811,1.113 -2.413,1.646 -1.438,0.464 -3.038,0.998 -3.038,2.922 0,1.972 1.623,3.131 3.688,3.131 1.206,0 2.273,-0.255 3.131,-0.835 V 1.762 H 2.505 C 1.671,2.435 0.695,2.83 -0.511,2.83 -1.717,2.83 -2.39,2.296 -2.39,1.577 -2.39,0.765 -1.648,0.534 0,0"
           style="fill:#040404"
           id="path24" />
      </g>
      <g
         transform="matrix(3.596418,0,0,-3.596418,294.72939,185.63201)"
         id="g25">
        <path
           d="M 0,0 H 5.079 C 5.01,1.507 4.268,2.666 2.69,2.666 1.229,2.666 0.278,1.576 0,0 Z m 3.038,-6.309 c -2.992,0 -5.033,1.995 -5.033,5.195 0,3.201 1.902,5.427 4.662,5.427 2.808,0 4.268,-2.018 4.268,-5.009 V -1.578 H -0.07 c 0.209,-2.064 1.531,-3.061 3.363,-3.061 1.138,0 1.949,0.255 2.853,0.928 h 0.07 V -5.405 C 5.382,-6.054 4.291,-6.309 3.038,-6.309"
           style="fill:#040404"
           id="path25" />
      </g>
    </g>
  </g>
</svg>
