<svg xmlns="https://www.w3.org/2000/svg" height="800" width="1200" viewBox="-316.8375 -502.91025 2745.925 3017.4615"><path d="M1148.159 502.913h872.057c50.829 0 92.034 41.205 92.034 92.034v821.766c0 50.829-41.205 92.034-92.034 92.034h-872.057c-50.829 0-92.034-41.205-92.034-92.034V594.947c0-50.83 41.205-92.034 92.034-92.034z" fill="#2B7CD3"/><path d="M1609.333 502.913a90.169 90.169 0 01-27.158 64.876L1207 942.965l-35.707 35.707a174.294 174.294 0 01-14.585 12.573 94.4 94.4 0 01-50.292 14.585 90.169 90.169 0 01-64.876-27.158L630.657 567.789c-31.013-30.58-36.069-78.823-12.07-115.168a109.223 109.223 0 0112.07-14.585L1041.54 27.154c35.304-35.83 92.97-36.256 128.801-.952.32.315.637.632.952.952l410.883 410.883a90.172 90.172 0 0127.157 64.876z" fill="#41A5EE"/><path d="M1609.333 1508.746c-.012 277.753-225.186 502.907-502.939 502.895-179.658-.01-345.667-95.853-435.504-251.436a361.038 361.038 0 01-25.146-50.292 431.543 431.543 0 01-19.111-50.292c-83.326-264.96 63.917-547.301 328.877-630.627a502.93 502.93 0 01150.906-23.165c17.099 0 33.695 1.006 50.292 2.515a403.308 403.308 0 0150.292 7.544c234.009 48.105 402.051 253.956 402.333 492.858z" fill="#103F91"/><path d="M1207 544.655v1073.224c-.25 37.292-22.849 70.794-57.333 84.993a89.104 89.104 0 01-34.701 7.04H645.745a431.543 431.543 0 01-19.111-50.291c-83.326-264.96 63.917-547.301 328.877-630.627a502.93 502.93 0 01150.905-23.165 90.169 90.169 0 01-64.876-27.158L630.657 567.789c-31.013-30.58-36.069-78.823-12.07-115.168h496.379c34.426.206 65.859 19.609 81.473 50.292A84.442 84.442 0 011207 544.655z" opacity=".1"/><path d="M1156.708 594.947V1668.17a89.06 89.06 0 01-7.041 34.7c-14.199 34.485-47.701 57.084-84.993 57.334H670.891a361.038 361.038 0 01-25.146-50.292 431.543 431.543 0 01-19.111-50.292c-83.326-264.96 63.917-547.301 328.877-630.627a502.93 502.93 0 01150.906-23.165 90.169 90.169 0 01-64.876-27.158L630.657 567.789a90.172 90.172 0 01-27.157-64.876h461.175a89.52 89.52 0 0166.888 29.672 90.525 90.525 0 0125.145 62.362z" opacity=".2"/><path d="M1156.708 594.947v972.64c-.383 50.67-41.365 91.652-92.034 92.035h-438.04c-83.326-264.96 63.917-547.301 328.877-630.627a502.93 502.93 0 01150.906-23.165 90.169 90.169 0 01-64.876-27.158L630.657 567.789a90.172 90.172 0 01-27.157-64.876h461.175a89.52 89.52 0 0166.888 29.672 90.525 90.525 0 0125.145 62.362z" opacity=".2"/><path d="M1106.417 594.947v410.883a90.169 90.169 0 01-64.876-27.158L630.657 567.789a90.172 90.172 0 01-27.157-64.876h410.883c50.749.193 91.841 41.285 92.034 92.034z" opacity=".2"/><path d="M1106.417 1005.83v561.758c-.383 50.669-41.364 91.65-92.034 92.034H626.634c-83.326-264.96 63.917-547.301 328.877-630.627a502.9 502.9 0 01150.906-23.165z" opacity=".2"/><linearGradient gradientTransform="matrix(1 0 0 -1 0 2114.243)" y2="432.882" x2="914.21" y1="1683.361" x1="192.207" gradientUnits="userSpaceOnUse" id="a"><stop offset="0" stop-color="#2368c4"/><stop offset=".5" stop-color="#1a5dbe"/><stop offset="1" stop-color="#1146ac"/></linearGradient><path d="M92.185 502.913h922.047c50.912 0 92.185 41.272 92.185 92.185v922.047c0 50.912-41.272 92.185-92.185 92.185H92.185C41.272 1609.33 0 1568.057 0 1517.145V595.098c0-50.912 41.272-92.185 92.185-92.185z" fill="url(#a)"/><path d="M523.033 1153.084c16.932 49.889 26.99 81.372 30.175 94.448h2.062c3.051-13.076 13.931-46.788 32.639-101.136l134.128-389.962h123.315l-227.57 599.326H485.717l-224.2-599.326h126.836z" fill="#FFF"/></svg>