<?xml version="1.0" encoding="UTF-8" standalone="no"?>
<!-- Created with Inkscape (http://www.inkscape.org/) -->

<svg
   width="800"
   height="800"
   viewBox="0 0 211.66666 211.66667"
   version="1.1"
   id="svg1"
   inkscape:version="1.3 (0e150ed6c4, 2023-07-21)"
   sodipodi:docname="Pluralsight-us-v1.0.svg"
   xmlns:inkscape="http://www.inkscape.org/namespaces/inkscape"
   xmlns:sodipodi="http://sodipodi.sourceforge.net/DTD/sodipodi-0.dtd"
   xmlns="http://www.w3.org/2000/svg"
   xmlns:svg="http://www.w3.org/2000/svg">
  <sodipodi:namedview
     id="namedview1"
     pagecolor="#cacaca"
     bordercolor="#000000"
     borderopacity="0.25"
     inkscape:showpageshadow="2"
     inkscape:pageopacity="0.0"
     inkscape:pagecheckerboard="0"
     inkscape:deskcolor="#d1d1d1"
     inkscape:document-units="mm"
     inkscape:zoom="0.733172"
     inkscape:cx="396.22353"
     inkscape:cy="561.25984"
     inkscape:window-width="1920"
     inkscape:window-height="1017"
     inkscape:window-x="1912"
     inkscape:window-y="-8"
     inkscape:window-maximized="1"
     inkscape:current-layer="layer1" />
  <defs
     id="defs1" />
  <g
     inkscape:label="Layer 1"
     inkscape:groupmode="layer"
     id="layer1">
    <g
       id="g1"
       transform="matrix(11.089532,0,0,11.089532,-601.43142,-1425.9752)"
       style="fill:#ffffff">
      <path
         id="path16"
         style="fill:#ffffff;fill-opacity:1;fill-rule:evenodd;stroke:none;stroke-width:0.0352778"
         d="m 62.239386,135.90982 3.837411,2.22113 -3.837411,2.22126 v 1.32747 l 6.08002,-3.54873 -6.08002,-3.54859 z m -0.923043,-0.53424 -2.153849,-1.24672 v 8.00432 l 2.153849,-1.24668 v 2.40107 l 8.835038,-5.15662 -8.835038,-5.15648 z m 0.923043,1.60126 1.994147,1.15411 -1.994147,1.15425 z m -0.923043,-1.60126 0.923043,0.53424 v 1.06702 l -0.923043,-0.53425 z m 0,1.06701 v 3.37686 l -1.230701,0.71247 v -4.8018 z m 0,3.37686 0.923043,-0.53425 v 1.06701 l -0.923043,0.53429 z m 11.076588,-1.68808 c 0,4.76028 -3.857272,8.61963 -8.615116,8.61963 -4.75795,0 -8.615081,-3.85935 -8.615081,-8.61949 0,-4.76084 3.857273,-8.62048 8.615081,-8.62048 4.758196,0 8.615469,3.85964 8.615116,8.62034 z m -18.153346,1.4e-4 c 0,5.2699 4.270128,9.54306 9.53823,9.54306 5.26796,0 9.537983,-4.27316 9.537983,-9.54306 7.05e-4,-5.27085 -4.270023,-9.54401 -9.537983,-9.54401 -5.267678,0 -9.53823,4.27316 -9.53823,9.54401" />
      <path
         id="path18"
         style="fill:#ffffff;fill-opacity:1;fill-rule:evenodd;stroke:none;stroke-width:0.0352778"
         d="m 64.233533,138.13095 -4.147891,2.40097 v -4.8018 z m 1.843264,0 -6.914303,-4.00209 v 8.00432 l 6.914303,-4.00223" />
      <path
         id="path20"
         style="fill:#ffffff;fill-opacity:1;fill-rule:evenodd;stroke:none;stroke-width:0.0352778"
         d="m 68.319406,138.13095 -6.08002,3.54873 v -7.09732 z m 1.831975,0 -8.835038,-5.15663 v 10.31325 l 8.835038,-5.15662" />
    </g>
  </g>
</svg>
