<?xml version="1.0" encoding="utf-8"?>
<!-- Generator: Adobe Illustrator 27.2.0, SVG Export Plug-In . SVG Version: 6.00 Build 0)  -->
<svg version="1.1" id="Layer_1" xmlns="https://www.w3.org/2000/svg" xmlns:xlink="https://www.w3.org/1999/xlink" x="0px" y="0px"
	 viewBox="0 0 512 512" style="enable-background:new 0 0 512 512;" xml:space="preserve">
<style type="text/css">
	.st0{fill:#E85E26;}
</style>
<g>
	<path d="M53.24,251.42H32.19l4.56-20.64h19.47c6.41,0,10.18,3.45,10.18,8.48C66.4,245.9,61.53,251.42,53.24,251.42 M87.97,237.23
		c0-14.17-10.93-24.58-30.04-24.58h-38.9L0,299.35h21.67l6.56-29.78h12.68l12.61,29.78h21.62L61.7,268.14
		C77.82,265.61,87.97,252.68,87.97,237.23"/>
	<path d="M125.37,266.89l18.58-31.96l7.03,31.96h-25.59H125.37z M135.17,212.65l-50.36,86.69h21.62l8.42-14.38h40.11l3.17,14.38
		h21.62l-18.98-86.69H135.17z M241.8,251.42h-19.22l4.52-20.64h16.74c6.6,0,10.65,3.15,10.65,8.48c0,6.63-4.99,12.16-12.66,12.16
		 M246.04,212.65h-36.66l-19.03,86.69h21.64l6.6-29.82h24.16c20.66,0,33.17-15.57,33.17-31.98c0-14.62-11.4-24.88-29.89-24.88"/>
	<polygon points="317.79,212.65 296.11,212.65 277.04,299.35 298.72,299.35 	"/>
	<path class="st0" d="M473.01,212.65h-68.34c1.04,1.06,2.07,2.15,3.02,3.3c7.65,9.27,11.68,20.92,11.68,33.74
		c0,19.79-8.33,37.64-21.71,49.66h41.84l19.88-49.42H434.5l4.15-19.17h49.42l-25.95,68.58h10.18c23.69,0.15,39.71-19.52,39.71-43.42
		s-15.27-43.27-39.01-43.27"/>
	<path d="M352.35,281.25h-11.97l11.12-50.47h11.31c12.4,0,19.36,9.29,19.36,20.92c0,15.64-11.16,29.55-29.78,29.55 M395.77,226.79
		c-7.43-9.05-19.69-14.13-34.17-14.13h-27.78l-19.09,86.69h34.96c13.57,0,24.01-3.02,31.98-7.82c16.21-9.84,21.96-27.14,21.96-41.84
		c0-9.16-2.86-16.92-7.84-22.9"/>
</g>
</svg>
