<?xml version="1.0" encoding="UTF-8" standalone="no"?>
<!-- Created with Inkscape (https://www.inkscape.org/) -->

<svg
   width="210mm"
   height="297mm"
   viewBox="0 0 210 297"
   version="1.1"
   id="svg1"
   xml:space="preserve"
   inkscape:version="1.3 (0e150ed6c4, 2023-07-21)"
   sodipodi:docname="vSphere.svg"
   xmlns:inkscape="https://www.inkscape.org/namespaces/inkscape"
   xmlns:sodipodi="https://sodipodi.sourceforge.net/DTD/sodipodi-0.dtd"
   xmlns="https://www.w3.org/2000/svg"
   xmlns:svg="https://www.w3.org/2000/svg"><sodipodi:namedview
     id="namedview1"
     pagecolor="#ffffff"
     bordercolor="#000000"
     borderopacity="0.25"
     inkscape:showpageshadow="2"
     inkscape:pageopacity="0.0"
     inkscape:pagecheckerboard="0"
     inkscape:deskcolor="#d1d1d1"
     inkscape:document-units="mm"
     inkscape:zoom="0.73228114"
     inkscape:cx="397.38836"
     inkscape:cy="559.89425"
     inkscape:window-width="1920"
     inkscape:window-height="1017"
     inkscape:window-x="5152"
     inkscape:window-y="-8"
     inkscape:window-maximized="1"
     inkscape:current-layer="layer1" /><defs
     id="defs1" /><g
     inkscape:label="Layer 1"
     inkscape:groupmode="layer"
     id="layer1"><g
       id="g1"
       transform="translate(18.065694,-11.20073)"><path
         style="fill:#90ca5c"
         d="m 56.136301,127.48906 c -0.419202,-0.12551 -1.055593,-0.50223 -1.414202,-0.83715 -1.452471,-1.35653 -1.395489,-0.45602 -1.395489,-22.05322 0,-22.12894 -0.07283,-21.16085 1.686266,-22.415623 0.790359,-0.563768 1.128357,-0.596005 7.574151,-0.722393 l 6.746875,-0.132292 0.132292,-7.276041 c 0.151686,-8.342749 0.22251,-8.631395 2.386995,-9.728255 l 1.184264,-0.60013 20.023209,0.07096 c 19.846778,0.07034 20.029788,0.07584 20.770098,0.624458 0.41079,0.304422 1.01478,0.947108 1.3422,1.42819 l 0.59532,0.874695 -9.9e-4,20.267643 c -9.6e-4,19.622548 -0.0174,20.294558 -0.51654,21.113168 -1.062,1.74173 -1.26415,1.78648 -8.73039,1.9326 l -6.759375,0.13229 -0.132292,7.27604 c -0.1293,7.11152 -0.146677,7.29919 -0.768492,8.29948 -0.392096,0.63074 -1.051965,1.21225 -1.719792,1.51554 -1.02627,0.46608 -2.119298,0.49122 -20.662757,0.47518 -10.768542,-0.009 -19.92215,-0.11962 -20.341351,-0.24514 z m 39.439194,-2.7987 c 0.317355,-0.0851 0.67399,-0.35138 0.79252,-0.5917 0.118531,-0.24032 0.275595,-4.12788 0.349032,-8.63903 l 0.133521,-8.20208 7.650782,-0.0703 c 5.10519,-0.0469 7.76819,-0.16771 8.00365,-0.36312 0.28826,-0.23924 0.35286,-3.87005 0.35286,-19.833524 v -19.54067 l -0.62282,-0.408089 c -0.54937,-0.359961 -2.88814,-0.399685 -19.830614,-0.336829 -15.321741,0.05684 -19.277358,0.140774 -19.551656,0.414843 -0.261763,0.261546 -0.375455,2.346298 -0.47616,8.73125 l -0.132291,8.387667 -7.749007,0.132292 c -6.499541,0.110961 -7.78957,0.196285 -8.000574,0.529167 -0.154648,0.243974 -0.227267,7.886026 -0.188493,19.835953 l 0.06307,19.43908 0.661458,0.33463 c 0.514635,0.26034 4.801881,0.33468 19.314583,0.3349 10.259219,1.6e-4 18.912779,-0.0694 19.230135,-0.15446 z M 60.47036,119.0315 c -0.516312,-0.51631 -0.529166,-0.88194 -0.529166,-15.05193 0,-13.900705 0.02165,-14.549529 0.505396,-15.147398 0.505166,-0.624338 0.508884,-0.624684 8.135938,-0.756916 l 7.63054,-0.132291 0.07004,-8.185554 c 0.0612,-7.151812 0.124849,-8.246116 0.504028,-8.665104 0.409072,-0.45202 1.275632,-0.47955 15.094748,-0.47955 9.600066,0 14.837426,0.09454 15.172536,0.273893 0.31515,0.16866 0.51022,0.549867 0.50772,0.992187 -0.009,1.585913 0.73903,1.500143 -14.339829,1.644337 l -13.834245,0.132292 -0.06992,8.444105 c -0.04714,5.692388 -0.16547,8.559234 -0.363126,8.797396 -0.232374,0.279993 -1.905822,0.353289 -8.066016,0.353289 h -7.77281 V 104.4622 c 0,13.03137 -0.07961,14.38392 -0.876449,14.8906 -0.547202,0.34794 -1.222835,0.22525 -1.769385,-0.3213 z m 6.761878,-5.61512 c -0.3515,-0.50183 -0.411878,-1.80292 -0.411878,-8.87556 v -8.287534 l 0.649432,-0.649431 0.649432,-0.649432 h 5.912235 c 6.411394,0 6.550269,0.0306 6.543183,1.441979 -0.0073,1.447859 -0.01893,1.451063 -5.564165,1.52868 l -5.147408,0.07205 v 6.614578 6.61459 l 6.317025,0.071 c 4.437801,0.0499 6.425222,-0.0188 6.680729,-0.23083 0.301302,-0.25006 0.363704,-3.08107 0.363704,-16.500321 0,-15.356796 0.02514,-16.221222 0.483854,-16.636352 0.428999,-0.388239 1.443129,-0.437882 8.945264,-0.437882 6.887138,0 8.556965,0.06982 8.974995,0.375286 0.48704,0.35588 0.51756,0.814309 0.59029,8.865019 l 0.0767,8.489733 -0.65998,0.65998 -0.65998,0.659981 -5.899003,-0.0041 C 91.832204,96.535643 89.0211,96.434546 88.829759,96.313211 88.604944,96.17065 88.511339,95.680658 88.565175,94.9282 l 0.08331,-1.164402 5.291667,-0.132292 5.291666,-0.132291 v -6.614583 -6.614583 l -6.317025,-0.07101 c -4.437801,-0.04989 -6.425223,0.01878 -6.680729,0.230834 -0.301302,0.250058 -0.363704,3.081069 -0.363704,16.500317 0,15.35679 -0.02514,16.22122 -0.483854,16.63635 -0.429413,0.38861 -1.454794,0.43788 -9.113122,0.43788 -8.617305,0 -8.629839,-8.1e-4 -9.041146,-0.58804 z"
         id="path3" /><path
         style="fill:#ecb206"
         d="m 55.716861,126.77016 c -0.504373,-0.25444 -1.159217,-0.87933 -1.455208,-1.38866 -0.528269,-0.909 -0.538168,-1.29432 -0.538168,-20.94882 0,-19.810161 0.0058,-20.030545 0.545515,-20.753444 1.353658,-1.813077 1.333494,-1.8086 8.799865,-1.953979 l 6.794204,-0.132292 0.132291,-7.540624 c 0.117597,-6.703007 0.185446,-7.618916 0.610807,-8.245435 1.082778,-1.594835 0.355492,-1.544242 22.183346,-1.543159 19.293877,9.57e-4 19.963287,0.0176 20.781577,0.516535 0.46503,0.28355 1.06035,0.843416 1.32291,1.244146 0.44957,0.686126 0.4774,1.901476 0.4774,20.848567 0,18.736165 -0.0321,20.178805 -0.4675,20.975385 -0.90867,1.66266 -1.43397,1.77582 -8.92521,1.92271 l -6.746872,0.13229 -0.132291,7.42072 c -0.146204,8.20107 -0.170123,8.31731 -1.932605,9.39196 -0.818209,0.4989 -1.486494,0.51557 -20.68927,0.51613 -18.36673,5.3e-4 -19.912008,-0.0339 -20.760791,-0.46203 z m 40.854121,-2.24128 c 0.351123,-0.50129 0.411878,-1.78922 0.411878,-8.73125 v -8.14321 h 7.55265 7.55265 l 0.64943,-0.64943 0.64944,-0.64943 V 86.896658 c 0,-19.106123 -0.01,-19.468494 -0.52917,-19.988067 -0.51968,-0.519676 -0.88194,-0.529167 -20.199618,-0.529167 -18.656029,0 -19.692832,0.02473 -20.104438,0.47955 -0.379179,0.418988 -0.442832,1.513292 -0.504028,8.665104 l -0.07004,8.185554 -7.630508,0.132291 c -7.627008,0.132231 -7.63074,0.132579 -8.135937,0.756916 -0.487119,0.601996 -0.50543,1.319112 -0.50543,19.795001 0,19.22631 0.03132,19.94089 0.899505,20.52059 0.160116,0.10691 9.12476,0.19621 19.92143,0.19844 l 19.630309,0.004 z M 60.78786,118.714 c -0.397881,-0.39788 -0.454653,-28.953481 -0.05881,-29.58041 0.210201,-0.332913 1.49945,-0.418196 7.999594,-0.529167 l 7.749007,-0.132292 0.132291,-8.387712 c 0.100715,-6.385636 0.214381,-8.469712 0.476205,-8.731249 0.273615,-0.273315 3.313858,-0.343538 14.873313,-0.343538 13.54344,0 14.56116,0.03176 14.99744,0.467986 0.363,0.362966 0.40322,0.570776 0.17922,0.926041 -0.26602,0.421911 -1.37223,0.468496 -14.018434,0.590348 -7.55129,0.07276 -13.878447,0.228616 -14.060348,0.346344 -0.253383,0.163993 -0.330729,2.220496 -0.330729,8.793516 v 8.579463 l -8.003646,0.07003 -8.003645,0.07003 -0.06855,13.73412 c -0.04794,9.60601 -0.157091,13.8408 -0.363126,14.08906 -0.365587,0.44051 -1.078912,0.45832 -1.499783,0.0374 z m 6.885122,-5.12146 c -0.58707,-0.4112 -0.588038,-0.42598 -0.588038,-8.97693 0,-7.433637 0.05492,-8.619979 0.415773,-8.98083 0.354315,-0.354314 1.33208,-0.415774 6.614584,-0.415774 h 6.198809 v 1.190625 1.190625 h -5.106458 c -3.618912,0 -5.198948,0.09249 -5.423958,0.3175 -0.367517,0.367516 -0.457109,12.546654 -0.09648,13.114834 0.164646,0.25939 1.708457,0.31938 6.80897,0.26458 l 6.596047,-0.0709 0.132292,-16.491737 c 0.127856,-15.938764 0.149512,-16.504322 0.645882,-16.867186 0.798104,-0.583443 16.713675,-0.550413 17.551505,0.03642 0.58701,0.411162 0.58803,0.426722 0.58803,8.954825 0,7.940251 -0.0341,8.57384 -0.48385,8.98083 -0.42093,0.380935 -1.28117,0.437882 -6.614588,0.437882 h -6.130725 v -1.19059 -1.190624 h 5.150066 c 4.820929,0 5.16757,-0.03271 5.423958,-0.511773 0.293832,-0.54903 0.38643,-11.608959 0.105959,-12.655723 l -0.160708,-0.599789 -6.6487,0.07062 -6.6487,0.07062 L 85.87036,96.7618 c -0.127856,15.9388 -0.149512,16.50435 -0.645882,16.86719 -0.798123,0.58342 -16.713694,0.55037 -17.551496,-0.0365 z"
         id="path2" /><path
         style="fill:#62b519"
         d="m 55.716861,126.77016 c -0.504373,-0.25444 -1.159217,-0.87933 -1.455208,-1.38866 -0.528269,-0.909 -0.538168,-1.29432 -0.538168,-20.94882 0,-19.810161 0.0058,-20.030545 0.545515,-20.753444 1.353658,-1.813077 1.333494,-1.8086 8.799865,-1.953979 l 6.794204,-0.132292 0.132291,-7.540624 c 0.117597,-6.703007 0.185446,-7.618916 0.610807,-8.245435 1.082778,-1.594835 0.355492,-1.544242 22.183346,-1.543159 19.293877,9.57e-4 19.963287,0.0176 20.781577,0.516535 0.46503,0.28355 1.06035,0.843416 1.32291,1.244146 0.44957,0.686126 0.4774,1.901476 0.4774,20.848567 0,18.736165 -0.0321,20.178805 -0.4675,20.975385 -0.90867,1.66266 -1.43397,1.77582 -8.92521,1.92271 l -6.746872,0.13229 -0.132291,7.42072 c -0.146204,8.20107 -0.170123,8.31731 -1.932605,9.39196 -0.818209,0.4989 -1.486494,0.51557 -20.68927,0.51613 -18.36673,5.3e-4 -19.912008,-0.0339 -20.760791,-0.46203 z m 40.854121,-2.24128 c 0.351123,-0.50129 0.411878,-1.78922 0.411878,-8.73125 v -8.14321 h 7.55265 7.55265 l 0.64943,-0.64943 0.64944,-0.64943 V 86.896658 c 0,-19.106123 -0.01,-19.468494 -0.52917,-19.988067 -0.51968,-0.519676 -0.88194,-0.529167 -20.199618,-0.529167 -18.656029,0 -19.692832,0.02473 -20.104438,0.47955 -0.379179,0.418988 -0.442832,1.513292 -0.504028,8.665104 l -0.07004,8.185554 -7.630508,0.132291 c -7.627008,0.132231 -7.63074,0.132579 -8.135937,0.756916 -0.487119,0.601996 -0.50543,1.319112 -0.50543,19.795001 0,19.22631 0.03132,19.94089 0.899505,20.52059 0.160116,0.10691 9.12476,0.19621 19.92143,0.19844 l 19.630309,0.004 z M 60.78786,118.714 c -0.397881,-0.39788 -0.454653,-28.953481 -0.05881,-29.58041 0.210201,-0.332913 1.49945,-0.418196 7.999594,-0.529167 l 7.749007,-0.132292 0.132291,-8.387712 c 0.100715,-6.385636 0.214381,-8.469712 0.476205,-8.731249 0.273615,-0.273315 3.313858,-0.343538 14.873313,-0.343538 13.54344,0 14.56116,0.03176 14.99744,0.467986 0.363,0.362966 0.40322,0.570776 0.17922,0.926041 -0.26602,0.421911 -1.37223,0.468496 -14.018434,0.590348 -7.55129,0.07276 -13.878447,0.228616 -14.060348,0.346344 -0.253383,0.163993 -0.330729,2.220496 -0.330729,8.793516 v 8.579463 l -8.003646,0.07003 -8.003645,0.07003 -0.06855,13.73412 c -0.04794,9.60601 -0.157091,13.8408 -0.363126,14.08906 -0.365587,0.44051 -1.078912,0.45832 -1.499783,0.0374 z"
         id="path1" /></g></g></svg>
