<?xml version="1.0" encoding="UTF-8" standalone="no"?>
<svg
   height="537"
   width="2500"
   viewBox="-0.53 0 242.55 55.56462528958825"
   version="1.1"
   id="svg1"
   sodipodi:docname="zscaler-logo.svg"
   inkscape:version="1.3 (0e150ed6c4, 2023-07-21)"
   xmlns:inkscape="http://www.inkscape.org/namespaces/inkscape"
   xmlns:sodipodi="http://sodipodi.sourceforge.net/DTD/sodipodi-0.dtd"
   xmlns="http://www.w3.org/2000/svg"
   xmlns:svg="http://www.w3.org/2000/svg">
  <defs
     id="defs1" />
  <sodipodi:namedview
     id="namedview1"
     pagecolor="#ffffff"
     bordercolor="#000000"
     borderopacity="0.25"
     inkscape:showpageshadow="2"
     inkscape:pageopacity="0.0"
     inkscape:pagecheckerboard="0"
     inkscape:deskcolor="#d1d1d1"
     inkscape:zoom="0.3912"
     inkscape:cx="1250"
     inkscape:cy="269.68303"
     inkscape:window-width="1620"
     inkscape:window-height="1018"
     inkscape:window-x="-6"
     inkscape:window-y="-6"
     inkscape:window-maximized="1"
     inkscape:current-layer="svg1" />
  <g
     fill="#0076be"
     id="g1"
     transform="translate(-0.26328207,1.7741083)">
    <path
       d="M 80.7,26.44 C 82.02,34.79 75.02,39.5 68.02,40 64.45,46.62 57.1,52 46.48,52 a 25,25 0 0 1 -12.51,-2.84 16,16 0 0 1 -2.85,0.26 c -3.71,0 -6.24,-0.86 -8.71,-3.79 5,-6.73 20.22,-18.83 38.76,-12.58 9.91,3.33 12.49,-4.5 10,-7.43 C 61.83,14.55 40.71,24.51 39.96,25.35 48.21,12.11 77.87,8.41 80.7,26.44 Z M 52.28,11.24 c 0.06,0 -6.73,-2.51 -16.23,1.77 a 11.53,11.53 0 0 1 -1.12,-0.54 c 9.13,-6.31 17.14,-9 24,-8 C 54.51,0.58 49.67,0 42.61,0 34.78,0 27.84,3.07 23.44,7.82 A 18.76,18.76 0 0 0 19.29,7.38 C 8.68,7.38 -0.53,17.39 0.02,28.76 0.57,40.13 12.5,47.22 19.29,45.31 a 1.4,1.4 0 0 1 0.5,0 c 1.5,-7.52 7.63,-25.01 32.49,-34.07 z m 56.81,10.41 1.27,-5.8 H 89.11 l -0.48,2.24 a 2.71,2.71 0 0 0 0.44,2.39 2.56,2.56 0 0 0 2.13,1 h 9.82 L 83.6,37.49 82.42,42.87 h 22.51 L 106.25,37 H 92.02 Z m 14.18,4.67 a 3.09,3.09 0 0 1 -0.8,-0.11 6.74,6.74 0 0 1 -1,-0.29 c -3.21,-0.75 -4.7,-1.66 -4.47,-2.75 a 2.74,2.74 0 0 1 1.28,-1.83 6.36,6.36 0 0 1 3.06,-0.6 4.27,4.27 0 0 1 3,0.91 l 0.6,0.81 a 2.38,2.38 0 0 0 2.45,1.73 h 4.19 a 7.54,7.54 0 0 0 -1.56,-6.61 q -2.5,-2.32 -7.57,-2.33 a 14.11,14.11 0 0 0 -8.1,2.33 10.75,10.75 0 0 0 -4.19,6.42 5.39,5.39 0 0 0 0.89,4.88 c 0.9,1.22 3,2.27 6.22,3.15 a 16.74,16.74 0 0 0 2.49,0.61 c 2.6,0.61 3.77,1.53 3.5,2.74 a 2.87,2.87 0 0 1 -1.59,1.93 6.89,6.89 0 0 1 -3.2,0.74 5.69,5.69 0 0 1 -3.68,-1 3,3 0 0 1 -0.79,-3 h -6.62 l -0.07,0.3 c -0.64,3 -0.21,5.25 1.34,6.8 1.55,1.55 4.05,2.35 7.78,2.34 3.9,0 7,-0.74 9.25,-2.24 a 10.69,10.69 0 0 0 4.64,-6.89 5.57,5.57 0 0 0 -0.78,-4.88 q -1.61,-1.84 -6.27,-3.16 z m 24.37,8.73 a 6.67,6.67 0 0 0 -1,0.81 6.39,6.39 0 0 1 -0.67,0.53 1.46,1.46 0 0 1 -0.61,0.36 6.09,6.09 0 0 1 -3,0.71 c -1.68,0 -2.83,-0.53 -3.44,-1.62 -0.89,-1.28 -1,-3.49 -0.32,-6.6 0.68,-3.11 1.76,-5.34 3.23,-6.7 a 5.72,5.72 0 0 1 3.82,-1.43 3.66,3.66 0 0 1 3.37,1.43 4.18,4.18 0 0 1 0.64,1.52 h 6.82 a 11.51,11.51 0 0 0 -1.39,-5.18 q -2.42,-3.66 -8.27,-3.66 A 13.27,13.27 0 0 0 137.3,19 19.51,19.51 0 0 0 132.02,29.16 q -1.48,6.81 0.82,10.46 2.3,3.65 7.86,3.76 a 14.28,14.28 0 0 0 8.1,-2.34 14.93,14.93 0 0 0 5.52,-6.49 h -4.8 a 3.07,3.07 0 0 0 -1.88,0.5 z m 29.68,-2.94 a 14.62,14.62 0 0 1 -2.8,6.34 12,12 0 0 1 -4.07,3.31 14.27,14.27 0 0 1 -4.64,1.37 37.44,37.44 0 0 1 -4.1,0.25 8.26,8.26 0 0 1 -5.72,-2 q -2.19,-2 -1.19,-6.56 a 9.27,9.27 0 0 1 3.72,-6.09 16.69,16.69 0 0 1 6.62,-2.44 6,6 0 0 0 1.19,-0.15 15.66,15.66 0 0 1 1.61,-0.25 c 3,-0.41 4.58,-1.29 4.87,-2.65 a 1.5,1.5 0 0 0 -0.83,-1.9 1.09,1.09 0 0 0 -0.24,-0.07 8.43,8.43 0 0 0 -2.68,-0.46 7.43,7.43 0 0 0 -2.52,0.4 3.69,3.69 0 0 0 -1.9,1.52 h -6.51 a 10.5,10.5 0 0 1 3.89,-5.17 13.12,13.12 0 0 1 8,-2.33 q 5.44,0 7.76,1.92 2.32,1.92 1.58,5.7 z m -5.71,-2.85 a 21.12,21.12 0 0 1 -4.08,1.32 l -2.34,0.53 a 7.3,7.3 0 0 0 -2.82,1.32 5.56,5.56 0 0 0 -1.18,2.24 2.92,2.92 0 0 0 0.34,2.44 3,3 0 0 0 2.36,0.8 6.91,6.91 0 0 0 4.65,-1.59 7.81,7.81 0 0 0 2.55,-4.48 z M 190.52,8.9 A 2.57,2.57 0 0 0 188.39,8 h -3.51 l -7.63,34.93 h 6.82 l 6.95,-31.62 a 2.7,2.7 0 0 0 -0.5,-2.41 z m 15.5,25.65 h 4.88 a 15,15 0 0 1 -5.47,6.45 14.34,14.34 0 0 1 -8.12,2.34 c -3.71,0 -6.31,-1.25 -7.84,-3.76 -1.53,-2.51 -1.83,-5.92 -0.83,-10.44 a 19.39,19.39 0 0 1 5.24,-10.14 13.3,13.3 0 0 1 9.49,-3.75 c 3.91,0 6.66,1.22 8.27,3.66 1.61,2.44 1.81,6 0.83,10.46 -0.06,0.27 -0.11,0.53 -0.17,0.71 a 3.35,3.35 0 0 0 -0.08,0.4 2.5,2.5 0 0 1 -0.25,0.71 h -16.86 c -0.39,2.12 -0.26,3.66 0.44,4.68 a 3.56,3.56 0 0 0 3.47,1.64 c 2.44,-0.07 3.39,-0.89 3.56,-1.06 a 16.35,16.35 0 0 1 1.58,-1.37 3.19,3.19 0 0 1 1.86,-0.53 z m -9.95,-7.92 h 9.95 a 5.86,5.86 0 0 0 -0.47,-4.07 3.79,3.79 0 0 0 -3.3,-1.42 5.74,5.74 0 0 0 -3.81,1.42 7.63,7.63 0 0 0 -2.33,4.07 z m 34.65,-10.78 a 20.28,20.28 0 0 0 -5.26,0.72 14.54,14.54 0 0 0 -8.84,6.55 20.5,20.5 0 0 0 -2.58,6.65 l -2.87,13.1 h 6.85 L 221.09,29 a 10.19,10.19 0 0 1 2.34,-4.47 c 2.34,-2.81 6.75,-2.57 6.75,-2.57 l 1.58,-6.07 h -1 z m 1.86,-5.24 0.18,-0.85 h 3.67 l -0.17,0.85 h -1.32 l -0.75,3.72 h -1 l 0.76,-3.72 z m 6.04,-0.87 0.34,3.32 1.69,-3.32 h 1.37 l -0.91,4.59 h -0.91 l 0.8,-3.65 -1.86,3.65 h -0.73 l -0.43,-3.65 -0.69,3.65 h -0.91 l 0.93,-4.59 z"
       id="path1" />
  </g>
</svg>
